<?xml version="1.0" encoding="UTF-8"?>
<!DOCTYPE svg PUBLIC "-//W3C//DTD SVG 1.1//EN" "http://www.w3.org/Graphics/SVG/1.1/DTD/svg11.dtd">
<!-- Creator: CorelDRAW X7 -->
<svg xmlns="http://www.w3.org/2000/svg" xml:space="preserve" width="120px" height="120px" version="1.1" style="shape-rendering:geometricPrecision; text-rendering:geometricPrecision; image-rendering:optimizeQuality; fill-rule:evenodd; clip-rule:evenodd"
viewBox="0 0 120 120"
 xmlns:xlink="http://www.w3.org/1999/xlink">
 <defs>
  <style type="text/css">
   <![CDATA[
    .fil0 {fill:#121111}
    .fil2 {fill:#FEFEFE;fill-rule:nonzero}
    .fil1 {fill:black;fill-opacity:0.400000}
   ]]>
  </style>
   <clipPath id="id0">
    <rect width="120" height="120"/>
   </clipPath>
 </defs>
 <g id="Слой_x0020_1">
  <metadata id="CorelCorpID_0Corel-Layer"/>
  <rect class="fil0" width="120" height="120"/>
  <g style="clip-path:url(#id0)">
   <image x="0" y="0" width="120" height="120" xlink:href="favicon_Images\favicon_ImgID1.png"/>
  </g>
  <polygon class="fil1" points="0,0 120,0 120,120 0,120 "/>
  <path class="fil2" d="M26 30c0,3 0,5 -2,6 -2,2 -4,3 -6,3 -2,0 -4,-1 -6,-2 -1,-2 -2,-4 -2,-6 0,-3 1,-5 2,-7 2,-2 4,-2 6,-2 3,0 5,0 6,2 2,2 2,4 2,6zm-3 0c0,-1 -1,-3 -2,-4 -1,-1 -2,-2 -3,-2 -1,0 -2,1 -3,2 -1,1 -1,3 -1,4 0,2 0,3 1,5 1,1 2,1 3,1 2,0 3,0 3,-1 1,-2 2,-3 2,-5z"/>
  <path id="1" class="fil2" d="M43 39l-4 0c0,-3 0,-6 0,-8l-6 0c0,2 0,5 0,8l-4 0c0,-3 0,-6 0,-9 0,-3 0,-6 0,-8l4 0c0,2 0,5 0,7l6 0c0,-2 0,-4 0,-7l4 0c-1,2 -1,5 -1,8 0,3 0,6 1,9z"/>
  <path id="2" class="fil2" d="M59 22c0,2 -1,5 -1,8 0,3 1,6 1,9l-4 0c0,-3 0,-6 0,-9 0,-2 0,-4 0,-6l-2 0c0,1 0,2 0,3 -1,0 -1,1 -1,2 0,1 -1,1 -1,2 0,1 -1,2 -1,3 0,0 -1,1 -1,2 -1,0 -1,1 -1,1 -1,1 -1,1 -2,1 0,1 -1,1 -1,1l0 -3c0,0 0,-1 1,-1 0,-1 0,-1 1,-2 0,-1 1,-1 1,-2 0,-1 1,-2 1,-3 1,-1 1,-2 1,-3 0,-1 1,-2 1,-3l8 0z"/>
  <path id="3" class="fil2" d="M77 39l-4 0c0,-1 -1,-3 -1,-5l-6 0c-1,2 -2,4 -2,5l-3 0c0,-1 1,-3 3,-9 2,-5 3,-8 3,-8l4 0c0,0 1,3 3,8 2,5 3,8 3,9zm-6 -8c-2,-4 -2,-6 -2,-7l0 0c0,1 -1,3 -3,7l5 0z"/>
  <path id="4" class="fil2" d="M93 39l-4 0c0,-2 0,-4 0,-7 0,-1 0,-3 1,-5l-1 0c0,1 -1,3 -4,6 -2,3 -3,5 -3,6l-3 0c0,-3 0,-5 0,-8 0,-3 0,-6 0,-9l3 0c0,2 0,4 0,7 0,1 0,3 0,4l0 0c1,-1 2,-3 5,-6 2,-2 3,-4 3,-5l3 0c0,3 0,6 0,9 0,3 0,5 0,8zm-2 -22c0,3 -2,4 -5,4 -1,0 -3,0 -3,-1 -1,-1 -1,-2 -1,-3l2 0c0,2 1,2 2,2 1,0 1,0 2,0 0,-1 0,-1 0,-2l3 0z"/>
  <path id="5" class="fil2" d="M110 39l-4 0c0,-3 0,-6 0,-8l-6 0c0,2 0,5 0,8l-3 0c0,-3 0,-6 0,-9 0,-3 0,-6 0,-8l3 0c0,2 0,5 0,7l7 0c0,-2 -1,-4 -1,-7l4 0c0,2 0,5 0,8 0,3 0,6 0,9z"/>
  <path id="6" class="fil2" d="M45 71l-4 0c0,-1 -1,-3 -2,-5l-5 0c-1,2 -2,4 -2,5l-4 0c0,-1 1,-3 3,-9 2,-5 3,-8 3,-8l5 0c0,0 1,3 3,8 2,5 3,8 3,9zm-6 -8c-2,-4 -2,-6 -2,-7l-1 0c0,1 0,3 -2,7l5 0z"/>
  <path id="7" class="fil2" d="M60 66c0,3 -3,5 -9,5 -1,0 -2,0 -4,0 0,-3 0,-6 0,-9 0,-3 0,-6 0,-8l2 0c0,0 1,0 2,0 1,0 1,0 2,0 4,0 6,1 6,4 0,1 -1,3 -3,3l0 0c1,1 2,1 2,2 1,0 2,1 2,3zm-4 0c0,-2 -1,-3 -4,-3 -1,0 -2,0 -2,0 0,2 0,4 0,5 0,0 1,0 1,0 2,0 3,0 4,0 1,-1 1,-1 1,-2zm-1 -7c0,-2 -1,-3 -3,-3 -1,0 -1,0 -2,0 0,1 0,3 0,5 0,0 1,0 1,0 3,0 4,-1 4,-2z"/>
  <path id="8" class="fil2" d="M74 54l0 3c-2,0 -3,-1 -5,-1 0,2 0,4 0,6 0,3 0,6 0,9l-3 0c0,-3 0,-6 0,-9 0,-2 0,-4 0,-6 -1,0 -3,1 -5,1l0 -3 13 0z"/>
  <path id="9" class="fil2" d="M92 62c0,3 -1,5 -3,6 -1,2 -3,3 -6,3 -2,0 -4,-1 -5,-2 -2,-2 -3,-4 -3,-6 0,-3 1,-5 3,-7 1,-2 3,-2 6,-2 2,0 4,0 5,2 2,1 3,3 3,6zm-4 0c0,-1 0,-3 -1,-4 -1,-1 -2,-2 -4,-2 -1,0 -2,1 -3,2 -1,1 -1,3 -1,4 0,2 0,3 1,5 1,1 2,1 4,1 1,0 2,0 3,-1 1,-2 1,-3 1,-5z"/>
  <path id="10" class="fil2" d="M33 100l0 2c-1,1 -2,1 -4,1 -3,0 -5,-1 -6,-3 -2,-1 -3,-3 -3,-5 0,-3 1,-5 3,-7 1,-1 4,-2 6,-2 2,0 3,0 3,0l0 3c-1,0 -2,-1 -3,-1 -2,0 -3,1 -4,2 -1,1 -1,3 -1,4 0,2 0,3 1,4 1,1 3,2 5,2 1,0 2,0 3,0z"/>
  <path id="11" class="fil2" d="M50 103l-4 0c0,-1 -1,-3 -1,-5l-6 0c-1,2 -1,4 -1,5l-4 0c0,-1 1,-4 3,-9 2,-5 3,-8 3,-8l5 0c0,0 0,3 2,8 2,5 3,8 3,9zm-6 -8c-1,-4 -2,-6 -2,-7l0 0c0,1 -1,3 -3,7l5 0z"/>
  <path id="12" class="fil2" d="M64 86c0,2 0,5 0,8 0,3 0,6 0,9l-3 0c0,-3 0,-6 0,-9 0,-2 0,-4 0,-6l-2 0c0,1 -1,2 -1,3 0,0 0,1 0,2 -1,1 -1,1 -1,2 -1,1 -1,2 -1,2 -1,1 -1,2 -2,3 0,0 0,1 -1,1 0,1 -1,1 -1,1 -1,1 -1,1 -2,1l0 -3c0,0 1,-1 1,-1 1,-1 1,-1 1,-2 1,-1 1,-1 2,-2 0,-1 1,-2 1,-3 0,-1 1,-2 1,-3 0,-1 0,-2 1,-3l7 0z"/>
  <path id="13" class="fil2" d="M83 94c0,3 0,5 -2,6 -2,2 -4,3 -6,3 -2,0 -4,-1 -6,-2 -1,-2 -2,-4 -2,-6 0,-3 1,-5 3,-7 1,-2 3,-2 5,-2 3,0 5,0 6,2 2,1 2,3 2,6zm-3 0c0,-2 -1,-3 -2,-4 0,-1 -2,-2 -3,-2 -1,0 -2,1 -3,2 -1,1 -1,2 -1,4 0,2 0,3 1,5 1,1 2,1 3,1 2,0 3,0 4,-1 0,-2 1,-3 1,-5z"/>
  <path id="14" class="fil2" d="M100 103l-4 0c0,-3 0,-6 0,-8l-6 0c0,2 0,5 0,8l-4 0c0,-3 0,-6 0,-9 0,-3 0,-6 0,-8l4 0c0,2 0,5 0,7l6 0c0,-2 0,-4 0,-7l4 0c0,2 -1,5 -1,8 0,3 1,6 1,9z"/>
 </g>
</svg>
