<?xml version="1.0" encoding="UTF-8"?>
<!DOCTYPE svg PUBLIC "-//W3C//DTD SVG 1.1//EN" "http://www.w3.org/Graphics/SVG/1.1/DTD/svg11.dtd">
<!-- Creator: CorelDRAW X7 -->
<svg xmlns="http://www.w3.org/2000/svg" xml:space="preserve" width="40px" height="40px" version="1.1" style="shape-rendering:geometricPrecision; text-rendering:geometricPrecision; image-rendering:optimizeQuality; fill-rule:evenodd; clip-rule:evenodd"
viewBox="0 0 40 40"
 xmlns:xlink="http://www.w3.org/1999/xlink">
 <defs>
  <style type="text/css">
   <![CDATA[
    .fil1 {fill:#1BD741}
    .fil0 {fill:#FEFFFE}
   ]]>
  </style>
 </defs>
 <g id="Слой_x0020_1">
  <metadata id="CorelCorpID_0Corel-Layer"/>
  <g id="_1071060463776">
   <g>
    <path class="fil0" d="M5 35c0,-1 1,-3 1,-5 1,-1 -2,-2 -2,-8 -2,-14 14,-24 25,-16 2,1 3,3 5,4 5,8 3,19 -5,24 -6,3 -12,3 -17,0 -1,0 -1,0 -4,0 -1,1 -2,1 -3,1zm-5 5l8 -2c3,-1 2,0 4,0 5,2 10,2 14,1 8,-2 14,-10 14,-18 0,-7 -3,-12 -6,-15 -4,-4 -9,-6 -15,-6 -3,0 -6,1 -9,2 -1,1 -2,2 -3,3l-1 1c-4,4 -7,10 -6,18 1,2 1,4 3,6 0,0 0,1 -1,2 0,2 -1,5 -2,8z"/>
    <path class="fil0" d="M13 11c-1,0 -3,2 -3,3 -1,3 1,6 3,8 1,1 1,1 2,3 1,0 2,1 3,2 2,1 2,1 4,2 6,2 8,-3 8,-4 0,-1 -2,-2 -3,-2 -2,-1 -2,-1 -3,1 -1,0 -1,1 -2,1 -2,-1 -4,-2 -5,-4 0,0 0,0 -1,0 -2,-3 -1,-3 0,-4 1,-1 1,-2 0,-4 0,-1 -1,-2 -1,-2 0,-1 -2,-1 -2,0z"/>
   </g>
   <path class="fil1" d="M13 11c0,-1 2,-1 2,0 0,0 1,1 1,2 1,2 1,3 0,4 -1,1 -2,1 0,4 1,0 1,0 1,0 1,2 3,3 5,4 1,0 1,-1 2,-1 1,-2 1,-2 3,-1 1,0 3,1 3,2 0,1 -2,6 -8,4 -2,-1 -2,-1 -4,-2 -1,-1 -2,-2 -3,-2 -1,-2 -1,-2 -2,-3 -2,-2 -4,-5 -3,-8 0,-1 2,-3 3,-3zm-8 24c1,0 2,0 3,-1 3,0 3,0 4,0 5,3 11,3 17,0 8,-5 10,-16 5,-24 -2,-1 -3,-3 -5,-4 -11,-8 -27,2 -25,16 0,6 3,7 2,8 0,2 -1,4 -1,5z"/>
  </g>
 </g>
</svg>
